<svg width="40" height="43" viewBox="0 0 40 43" fill="none" xmlns="http://www.w3.org/2000/svg">
<path d="M38.6927 31.6157V33.3099C38.6927 34.0259 38.1125 34.6072 37.3979 34.6072H1.29483C0.580197 34.6072 0 34.0259 0 33.3099V31.6157C0 31.1443 0.258256 30.7084 0.672176 30.478C2.37385 29.5316 6.72532 26.2531 6.72532 17.4312V16.5274C6.72532 10.4878 10.953 5.43355 16.6063 4.17884V4.11859C16.6063 2.6016 17.8339 1.36816 19.3516 1.36816C20.1087 1.36816 20.7951 1.67652 21.2903 2.17274C21.7856 2.66895 22.0934 3.35655 22.0934 4.11504V4.1753C23.0769 4.39505 24.0144 4.72467 24.8953 5.16063C24.7397 5.78798 24.6583 6.44014 24.6583 7.11357C24.6583 11.3065 27.8317 14.7588 31.9037 15.1947C31.9497 15.6307 31.9744 16.0773 31.9744 16.5238V17.4277C31.9744 26.2496 36.3259 29.5281 38.0276 30.4744C38.4415 30.7048 38.6998 31.1372 38.6998 31.6122L38.6927 31.6157Z" fill="#6C4023"/>
<path d="M25.3871 36.0532C25.3871 39.3956 22.6807 42.107 19.3446 42.107C16.0085 42.107 13.3021 39.3956 13.3021 36.0532H25.3871Z" fill="#6C4023"/>
<path d="M32.7669 14.2412C36.6922 14.2412 39.8743 11.0532 39.8743 7.12062C39.8743 3.18801 36.6922 0 32.7669 0C28.8416 0 25.6595 3.18801 25.6595 7.12062C25.6595 11.0532 28.8416 14.2412 32.7669 14.2412Z" fill="#51FF3E"/>
<path d="M33.6195 4.43046V9.95258C33.6195 10.2787 33.3542 10.5445 33.0287 10.5445C32.7032 10.5445 32.4379 10.2787 32.4379 9.95258V5.62846C32.3318 5.73479 32.2186 5.83758 32.0983 5.94391C31.8329 6.17075 31.4296 6.11758 31.2315 5.83049C31.0582 5.57884 31.1042 5.23503 31.3377 5.04009C31.8117 4.64667 32.1053 4.27097 32.2752 4.01932C32.4096 3.81729 32.6396 3.69324 32.8837 3.69324C33.2905 3.69324 33.6195 4.02286 33.6195 4.43046Z" fill="#6C4023"/>
</svg>
