<svg width="56" height="56" viewBox="0 0 56 56" fill="none" xmlns="http://www.w3.org/2000/svg">
<path d="M40.0175 33.3832V36.8627C40.0175 39.003 41.7516 40.7377 43.8902 40.7377H52.2088C52.8106 40.7377 53.2983 41.2258 53.2983 41.828V50.9371C53.2983 53.292 51.3906 55.2009 49.0371 55.2009H4.51611C2.16259 55.2009 0.254883 53.292 0.254883 50.9371V19.3085C0.254883 16.9536 2.16259 15.0447 4.51611 15.0447H49.0371C51.3906 15.0447 53.2983 16.9536 53.2983 19.3085V28.4176C53.2983 29.0198 52.8106 29.5078 52.2088 29.5078H43.8902C41.7512 29.5078 40.0175 31.2429 40.0175 33.3828V33.3832Z" fill="#6C4023"/>
<path d="M53.4738 30.5768H43.9051C42.3479 30.5768 41.0857 31.8397 41.0857 33.3979V36.8477C41.0857 38.4058 42.3479 39.6688 43.9051 39.6688H53.4738C54.4209 39.6688 55.1888 38.9005 55.1888 37.9528V32.2924C55.1888 31.3447 54.4209 30.5768 53.4738 30.5768ZM45.3407 36.8393C44.3929 36.8393 43.6247 36.071 43.6247 35.1226C43.6247 34.1742 44.3926 33.4056 45.3407 33.4056C46.2888 33.4056 47.0563 34.1742 47.0563 35.1226C47.0563 36.071 46.2885 36.8393 45.3407 36.8393Z" fill="#6C4023"/>
<path d="M43.3202 6.42502L11.9622 14.081H46.0995V8.60896C46.0995 7.15172 44.7353 6.07952 43.3202 6.42502Z" fill="#6C4023"/>
<path d="M38.7681 6.43605L7.45435 14.0809L34.4063 0.295573C35.6983 -0.376334 37.2784 0.340667 37.6241 1.75629L38.7681 6.43605Z" fill="#6C4023"/>
</svg>
