<?xml version="1.0" encoding="UTF-8"?>
<svg id="_圖層_1" xmlns="http://www.w3.org/2000/svg" version="1.1" viewBox="0 0 1920 616.08">
  <!-- Generator: Adobe Illustrator 29.6.1, SVG Export Plug-In . SVG Version: 2.1.1 Build 9)  -->
  <defs>
    <style>
      .st0 {
        isolation: isolate;
      }

      .st1 {
        fill: #fff;
      }
    </style>
  </defs>
  <g class="st0">
    <g class="st0">
      <path class="st1" d="M5.29,255.08C5.29,123.52,40.21,48.26,89.16,48.26c15.86,0,32.17,6.89,41.13,17.23l-5.97,99.39c-8.73-8.04-19.07-14.36-31.71-14.36-18.15,0-35.16,22.98-35.16,98.81,0,70.09,13.79,99.39,36.31,99.39,10.11,0,21.83-4.6,30.1-11.49l4.14,99.39c-7.35,8.04-23.21,15.51-40.21,15.51-61.82,0-82.5-99.39-82.5-197.05Z"/>
      <path class="st1" d="M151.9,28.73l49.87-2.3v158.56h.46c10.57-22.98,19.76-30.45,30.79-30.45,34.24,0,39.3,63.77,39.3,130.98v160.86h-49.87v-157.99c0-24.7-1.61-36.77-10.34-36.77-5.06,0-7.81,4.6-10.34,8.62v186.14h-49.87V28.73Z"/>
      <path class="st1" d="M293.68,359.63c0-45.38,10.34-82.15,33.32-82.15h31.48v-17.23c0-10.92-5.29-14.94-12.64-14.94-11.95,0-28.95,10.34-37,18.96l-8.04-86.17c11.03-9.19,29.64-23.55,55.84-23.55,33.32,0,51.47,22.98,51.47,89.62v138.45c0,25.85.23,49.98,1.15,63.77h-35.16l-11.49-30.45h-.69c-8.04,26.43-19.53,36.19-30.79,36.19-21.83,0-37.46-36.77-37.46-92.49ZM359.4,369.98v-32.17h-14.71c-3.68,0-5.06,8.62-5.06,18.96,0,10.92,3.22,17.24,10.11,17.24,2.07,0,6.66-1.72,9.65-4.02Z"/>
      <path class="st1" d="M434.09,260.25c0-44.24-.46-72.96-.69-98.81l42.05-2.87,4.14,46.53h.92c6.43-35.04,21.14-56.3,36.54-48.83v110.3c-11.49-14.36-26.2-20.68-33.09,4.02v175.79h-49.87v-186.14Z"/>
      <path class="st1" d="M526.24,509.58c0-22.41,8.04-53.43,19.53-64.92v-1.15c-6.2-10.34-8.04-24.7-8.04-37.92,0-23.55,7.35-47.11,16.55-63.19v-1.15c-8.04-9.77-19.53-41.36-19.53-76.41,0-66.07,25.05-110.88,55.61-110.88,8.27,0,20.91,5.17,27.12,12.64-.46-18.96,0-60.9,23.21-60.9h22.98v75.83h-19.76c-4.14,0-11.03,0-11.03,10.34,7.81,17.81,13.33,40.79,13.33,72.96,0,63.19-22.98,105.71-54.92,105.71-8.27,0-14.25-3.45-19.3-7.47-.69,3.45-1.15,6.32-1.15,8.62,0,9.19,5.29,12.64,9.19,13.79,48.72,12.06,78.59,14.36,78.59,95.94,0,43.66-12.64,114.32-75.37,116.05-10.34,0-56.99-1.72-56.99-87.9ZM616.78,479.7c0-7.47-28.72-10.34-42.05-14.94-2.53-.57-4.37-1.72-5.52-2.87-2.53,4.6-2.76,10.34-2.76,14.94,0,17.81,10.8,24.13,22.29,24.13,13.33,0,28.04-9.19,28.04-21.26ZM599.77,264.84c0-33.89-6.66-35.62-9.42-35.62-2.99,0-9.19,1.72-9.19,35.62s6.2,35.62,9.19,35.62c3.45,0,9.42-1.72,9.42-35.62Z"/>
      <path class="st1" d="M671.7,307.93c0-72.96,17.24-153.39,62.28-153.39s58.83,86.17,50.56,183.84h-64.34c.23,18.96,8.5,25.28,19.07,25.28,12.18,0,27.12-8.04,36.77-13.79l4.14,85.03c-15.17,13.79-32.86,17.23-45.5,17.23-39.53,0-62.96-47.68-62.96-144.2ZM741.1,267.14v-5.17c0-6.32-.92-25.28-9.42-25.28-5.97,0-11.49,14.36-11.49,30.45h20.91Z"/>
    </g>
    <g class="st0">
      <path class="st1" d="M920.57,306.78l-47.11-252.78h56.99l7.58,78.71,8.27,93.64h.46l8.27-93.64,7.58-78.71h56.99l-47.11,252.78v139.6h-51.93v-139.6Z"/>
    </g>
    <g class="st0">
      <path class="st1" d="M1016.4,303.33c0-118.92,33.55-148.79,62.96-148.79s62.96,31.6,62.96,148.79-33.55,148.79-62.96,148.79-62.96-29.87-62.96-148.79ZM1090.85,303.33c0-60.9-8.04-60.9-11.49-60.9s-11.26,0-11.26,60.9,7.81,60.9,11.26,60.9,11.49,0,11.49-60.9Z"/>
      <path class="st1" d="M1164.62,328.61v-167.18h49.87v157.99c0,24.7,1.84,36.19,9.88,36.19,5.29,0,10.57-10.34,10.57-18.96v-175.22h49.64v172.35c0,44.24.23,82.15,1.15,112.6h-34.24l-11.26-32.17h-.46c-6.89,23.55-16.54,37.92-35.16,37.92-32.86,0-39.99-56.3-39.99-123.52Z"/>
      <path class="st1" d="M1310.54,260.25c0-44.24-.46-72.96-.69-98.81l42.05-2.87,4.14,46.53h.92c6.43-35.04,21.14-56.3,36.54-48.83v110.3c-11.49-14.36-26.2-20.68-33.09,4.02v175.79h-49.87v-186.14Z"/>
      <path class="st1" d="M1491.62,54h50.1v288.4h58.83l-2.07,103.98h-106.86V54Z"/>
      <path class="st1" d="M1619.61,64.34C1619.61,28.73,1630.87,0,1645.12,0s25.74,28.72,25.74,64.34-11.49,63.77-25.74,63.77-25.51-28.72-25.51-63.77ZM1620.3,161.43l49.87-2.87v287.82h-49.87V161.43Z"/>
      <path class="st1" d="M1702.33,249.33h-12.64l2.3-83.3,10.34-4.6v-17.81c0-67.79,17.23-120.64,50.1-120.64,7.12,0,15.4.57,21.37,2.87l-3.45,93.07h-4.14c-9.88,0-14.25,10.34-14.25,30.45v12.06h18.15l-2.07,87.9h-15.86v197.05h-49.87v-197.05Z"/>
      <path class="st1" d="M1786.44,307.93c0-72.96,17.24-153.39,62.28-153.39s58.83,86.17,50.56,183.84h-64.34c.23,18.96,8.5,25.28,19.07,25.28,12.18,0,27.12-8.04,36.77-13.79l4.14,85.03c-15.17,13.79-32.86,17.23-45.5,17.23-39.53,0-62.96-47.68-62.96-144.2ZM1855.84,267.14v-5.17c0-6.32-.92-25.28-9.42-25.28-5.97,0-11.49,14.36-11.49,30.45h20.91Z"/>
    </g>
  </g>
</svg>