<?xml version="1.0" encoding="UTF-8"?>
<svg id="_圖層_1" xmlns="http://www.w3.org/2000/svg" version="1.1" viewBox="0 0 1980 401.37">
  <!-- Generator: Adobe Illustrator 29.6.1, SVG Export Plug-In . SVG Version: 2.1.1 Build 9)  -->
  <path d="M1976.98,392.59c-2.33,0-4.67-.81-6.57-2.46-87-75.79-174.85-130.81-261.11-163.51-103.36-39.18-204.2-45.94-299.73-20.09-.04,0-.07.02-.11.03-23.28,6.03-49.19,14.82-52.07,15.81-9.73,3.33-17.51,6.2-27.36,9.85-16.29,6.03-33.48,12.62-48.38,18.56l-.66.26c-70.42,27.94-131.14,31.62-169.67,29.8-42.12-1.99-67.44-10.68-68.5-11.04-31.8-11.09-63.2-30.04-89.46-53.62-19.4,11.47-38.84,21.84-56.11,31.05-.04.02-.1.05-.14.07-186.01,95.91-306.19,87.94-458.34,77.84-7.67-.51-15.43-1.02-23.29-1.53-.06,0-.12,0-.18-.01-40.26-3.33-58.95-5.3-105.18-11.94-93.37-14.12-166.3-34.32-354.8-98.25-5.23-1.77-8.03-7.45-6.26-12.68,1.77-5.23,7.45-8.03,12.68-6.26,187.17,63.48,259.4,83.5,351.3,97.41,45.61,6.55,64.09,8.5,103.82,11.79,7.84.51,15.58,1.02,23.24,1.53,76.52,5.08,142.61,9.46,212.98.95,76.89-9.3,151.5-33.63,234.81-76.58,15.65-8.35,33.11-17.66,50.59-27.84-2.47-2.59-4.87-5.23-7.2-7.9-32.09-36.78-47.81-76.84-44.27-112.81.94-9.54,6-42.15,31.69-61.39,18.7-14,45.4-18.72,73.27-12.94,29.3,6.08,54.1,22.51,66.35,43.96,8.36,14.64,9.41,29.02,9.48,34.52.36,31.86-19.67,63.1-61.25,95.48-11.09,8.64-23.06,16.85-35.32,24.62,23.33,19.99,50.6,36.03,78.18,45.65.22.08,24.25,8.23,63.74,9.99,36.38,1.62,93.76-1.99,160.47-28.46l.63-.25c15.05-6,32.4-12.66,48.85-18.74,9.98-3.69,17.87-6.61,27.83-10.01,2.95-1.01,29.5-10.02,53.49-16.23,99.66-26.95,204.62-19.98,311.96,20.72,88.48,33.54,178.37,89.77,267.16,167.13,4.16,3.63,4.6,9.94.97,14.11-1.98,2.27-4.75,3.43-7.54,3.43l.01-.02ZM968.91,24.24c-14.86,0-28.22,3.9-38.21,11.38-19.15,14.35-23.04,39.87-23.78,47.34-2.99,30.42,11.01,65.12,39.44,97.7,3.12,3.57,6.37,7.07,9.73,10.48,13.33-8.28,26.33-17.06,38.17-26.29,36.32-28.29,53.83-54.29,53.54-79.48-.04-3.07-.64-13.96-6.85-24.83-9.31-16.3-29.63-29.44-53.04-34.3-6.5-1.35-12.88-2.01-19.01-2.01l.01.01Z" fill="#ffce00"/>
</svg>