<svg width="85" height="62" viewBox="0 0 85 62" fill="none" xmlns="http://www.w3.org/2000/svg">
<path d="M75.93 4.31006H9.06998C4.06983 4.31006 0 8.36726 0 13.3532V49.1219C0 54.1078 4.06983 58.165 9.06998 58.165H75.93C80.9302 58.165 85 54.1078 85 49.1219V13.3532C85 8.36726 80.9302 4.31006 75.93 4.31006ZM9.06998 6.86497H75.93C79.2643 6.86497 81.9886 9.38666 82.3615 12.6135H2.63847C3.01137 9.38794 5.73697 6.86497 9.06998 6.86497ZM75.93 55.6114H9.06998C5.48069 55.6114 2.56287 52.7013 2.56287 49.1232V21.3436H82.4371V49.1232C82.4371 52.7013 79.5193 55.6114 75.93 55.6114Z" fill="#6C4023"/>
<path d="M32.4664 42.4039C31.973 42.6492 30.9902 42.8945 29.7305 42.8945C26.8101 42.8945 24.6125 41.0549 24.6125 37.6697C24.6125 34.4364 26.8101 32.2456 30.0214 32.2456C31.3131 32.2456 32.1294 32.5215 32.4818 32.7055L32.1588 33.7939C31.6514 33.5486 30.93 33.3647 30.0688 33.3647C27.6418 33.3647 26.0272 34.9117 26.0272 37.6237C26.0272 40.1518 27.4867 41.7767 30.006 41.7767C30.8223 41.7767 31.6501 41.6081 32.1883 41.3475L32.4664 42.4039Z" fill="#6C4023"/>
<path d="M35.8827 39.4926L34.8063 42.7412H33.4223L36.9411 32.4155H38.5558L42.0925 42.7412H40.6637L39.5553 39.4926H35.8827ZM39.2785 38.4502L38.2649 35.4776C38.0316 34.8044 37.8792 34.1912 37.7267 33.5933H37.6946C37.5421 34.2065 37.3717 34.835 37.1744 35.4623L36.1582 38.4489H39.2785V38.4502Z" fill="#6C4023"/>
<path d="M43.6161 32.552C44.294 32.4141 45.2602 32.3374 46.1841 32.3374C47.6129 32.3374 48.5343 32.598 49.1801 33.1805C49.7029 33.6404 49.9964 34.3456 49.9964 35.1414C49.9964 36.5045 49.1353 37.4089 48.0448 37.7768V37.8228C48.8431 38.0987 49.3211 38.8345 49.5658 39.9063C49.9041 41.3473 50.1489 42.3424 50.3641 42.741H48.9828C48.8123 42.4497 48.583 41.5619 48.2895 40.2742C47.982 38.8499 47.4284 38.3133 46.2149 38.2673H44.9565V42.741H43.6174L43.6161 32.552ZM44.9552 37.2556H46.3212C47.75 37.2556 48.6586 36.4738 48.6586 35.2947C48.6586 33.961 47.6898 33.3785 46.2764 33.3645C45.6305 33.3645 45.1705 33.4258 44.9552 33.4871V37.2569V37.2556Z" fill="#6C4023"/>
<path d="M51.8904 32.552C52.7041 32.4294 53.6728 32.3374 54.7339 32.3374C56.656 32.3374 58.022 32.782 58.928 33.6238C59.8519 34.4669 60.3901 35.6613 60.3901 37.331C60.3901 39.0159 59.8673 40.3956 58.8985 41.346C57.9297 42.3105 56.3331 42.8317 54.3187 42.8317C53.3653 42.8317 52.5669 42.7857 51.8904 42.7091V32.552ZM53.2269 41.6833C53.5652 41.7446 54.0573 41.7599 54.5814 41.7599C57.4402 41.7599 58.9908 40.1669 58.9908 37.3782C59.0061 34.9421 57.6222 33.3951 54.7966 33.3951C54.1034 33.3951 53.5806 33.4565 53.2269 33.5331V41.6833Z" fill="#6C4023"/>
</svg>
