<svg width="39" height="42" viewBox="0 0 39 42" fill="none" xmlns="http://www.w3.org/2000/svg">
<path d="M38.6927 30.6157V32.3099C38.6927 33.0259 38.1125 33.6072 37.3979 33.6072H1.29483C0.580197 33.6072 0 33.0259 0 32.3099V30.6157C0 30.1443 0.258256 29.7084 0.672176 29.478C2.37385 28.5316 6.72532 25.2531 6.72532 16.4312V15.5274C6.72532 9.4878 10.953 4.43355 16.6063 3.17884V3.11859C16.6063 1.6016 17.8339 0.368164 19.3516 0.368164C20.1087 0.368164 20.7951 0.676525 21.2903 1.17274C21.7856 1.66895 22.0934 2.35655 22.0934 3.11504V3.1753C23.0769 3.39505 24.0144 3.72467 24.8953 4.16063C24.7397 4.78798 24.6583 5.44014 24.6583 6.11357C24.6583 10.3065 27.8317 13.7588 31.9037 14.1947C31.9497 14.6307 31.9744 15.0773 31.9744 15.5238V16.4277C31.9744 25.2496 36.3259 28.5281 38.0276 29.4744C38.4415 29.7048 38.6998 30.1372 38.6998 30.6122L38.6927 30.6157Z" fill="#6C4023"/>
<path d="M25.3871 35.0532C25.3871 38.3956 22.6807 41.107 19.3446 41.107C16.0085 41.107 13.3021 38.3956 13.3021 35.0532H25.3871Z" fill="#6C4023"/>
</svg>
