<?xml version="1.0" encoding="UTF-8"?>
<svg id="_圖層_1" data-name="圖層 1" xmlns="http://www.w3.org/2000/svg" viewBox="0 0 1941.14 606.95">
  <defs>
    <style>
      .cls-1 {
        fill: #fff;
      }
    </style>
  </defs>
  <path class="cls-1" d="M0,259.12C0,125.47,35.76,49.02,85.87,49.02c16.23,0,32.94,7,42.11,17.51l-6.12,100.96c-8.94-8.17-19.53-14.59-32.47-14.59-18.58,0-35.99,23.34-35.99,100.38,0,71.2,14.12,100.96,37.17,100.96,10.35,0,22.35-4.67,30.82-11.67l4.23,100.96c-7.53,8.17-23.76,15.76-41.17,15.76C21.17,459.29,0,358.33,0,259.12Z"/>
  <path class="cls-1" d="M150.09,29.18l51.05-2.33v161.07h.47c10.82-23.34,20.23-30.93,31.52-30.93,35.05,0,40.23,64.78,40.23,133.06v163.41h-51.05v-160.49c0-25.09-1.65-37.35-10.59-37.35-5.18,0-8,4.67-10.59,8.75v189.09h-51.05V29.18Z"/>
  <path class="cls-1" d="M295.24,365.33c0-46.1,10.59-83.45,34.11-83.45h32.23v-17.51c0-11.09-5.41-15.17-12.94-15.17-12.23,0-29.64,10.5-37.88,19.26l-8.23-87.54c11.29-9.34,30.35-23.93,57.17-23.93,34.11,0,52.7,23.34,52.7,91.04v140.65c0,26.26.24,50.77,1.18,64.78h-35.99l-11.76-30.93h-.71c-8.23,26.85-20,36.77-31.52,36.77-22.35,0-38.35-37.35-38.35-93.96ZM362.52,375.84v-32.68h-15.06c-3.76,0-5.18,8.75-5.18,19.26,0,11.09,3.29,17.51,10.35,17.51,2.12,0,6.82-1.75,9.88-4.09Z"/>
  <path class="cls-1" d="M438.98,264.37c0-44.94-.47-74.12-.71-100.38l43.05-2.92,4.24,47.27h.94c6.59-35.6,21.64-57.19,37.41-49.61v112.05c-11.76-14.59-26.82-21.01-33.88,4.09v178.58h-51.05v-189.09Z"/>
  <path class="cls-1" d="M533.31,517.65c0-22.76,8.23-54.27,20-65.95v-1.17c-6.35-10.5-8.23-25.09-8.23-38.52,0-23.93,7.53-47.86,16.94-64.2v-1.17c-8.23-9.92-20-42.02-20-77.62,0-67.11,25.64-112.63,56.93-112.63,8.47,0,21.41,5.25,27.76,12.84-.47-19.26,0-61.86,23.76-61.86h23.53v77.04h-20.23c-4.23,0-11.29,0-11.29,10.5,8,18.09,13.65,41.44,13.65,74.12,0,64.2-23.53,107.38-56.23,107.38-8.47,0-14.59-3.5-19.76-7.59-.71,3.5-1.18,6.42-1.18,8.75,0,9.34,5.41,12.84,9.41,14.01,49.87,12.26,80.46,14.59,80.46,97.46,0,44.35-12.94,116.14-77.16,117.89-10.59,0-58.34-1.75-58.34-89.29ZM626,487.31c0-7.59-29.41-10.51-43.05-15.17-2.59-.58-4.47-1.75-5.65-2.92-2.59,4.67-2.82,10.5-2.82,15.17,0,18.09,11.06,24.51,22.82,24.51,13.65,0,28.7-9.34,28.7-21.59ZM608.59,269.04c0-34.43-6.82-36.18-9.65-36.18-3.06,0-9.41,1.75-9.41,36.18s6.35,36.18,9.41,36.18c3.53,0,9.65-1.75,9.65-36.18Z"/>
  <path class="cls-1" d="M682.23,312.81c0-74.12,17.64-155.82,63.75-155.82s60.23,87.54,51.76,186.75h-65.87c.24,19.26,8.7,25.68,19.53,25.68,12.47,0,27.76-8.17,37.64-14.01l4.23,86.37c-15.53,14.01-33.64,17.51-46.58,17.51-40.46,0-64.46-48.44-64.46-146.48ZM753.27,271.37v-5.25c0-6.42-.94-25.68-9.65-25.68-6.12,0-11.76,14.59-11.76,30.93h21.41Z"/>
  <path class="cls-1" d="M937,311.64l-48.23-256.78h58.34l7.76,79.95,8.47,95.13h.47l8.47-95.13,7.76-79.95h58.34l-48.23,256.78v141.82h-53.17v-141.82Z"/>
  <path class="cls-1" d="M1035.1,308.14c0-120.81,34.35-151.15,64.46-151.15s64.46,32.1,64.46,151.15-34.35,151.15-64.46,151.15-64.46-30.35-64.46-151.15ZM1111.32,308.14c0-61.86-8.23-61.86-11.76-61.86s-11.53,0-11.53,61.86,8,61.86,11.53,61.86,11.76,0,11.76-61.86Z"/>
  <path class="cls-1" d="M1186.84,333.82v-169.83h51.05v160.49c0,25.09,1.88,36.77,10.12,36.77,5.41,0,10.82-10.5,10.82-19.26v-178h50.82v175.08c0,44.94.24,83.45,1.18,114.39h-35.05l-11.53-32.68h-.47c-7.06,23.93-16.94,38.52-35.99,38.52-33.64,0-40.93-57.19-40.93-125.47Z"/>
  <path class="cls-1" d="M1336.22,264.37c0-44.94-.47-74.12-.71-100.38l43.05-2.92,4.24,47.27h.94c6.59-35.6,21.64-57.19,37.41-49.61v112.05c-11.76-14.59-26.82-21.01-33.88,4.09v178.58h-51.05v-189.09Z"/>
  <path class="cls-1" d="M1521.59,54.86h51.29v292.97h60.23l-2.12,105.63h-109.39V54.86Z"/>
  <path class="cls-1" d="M1652.63,65.36c0-36.18,11.53-65.36,26.11-65.36s26.35,29.18,26.35,65.36-11.76,64.78-26.35,64.78-26.11-29.18-26.11-64.78ZM1653.33,163.99l51.05-2.92v292.38h-51.05V163.99Z"/>
  <path class="cls-1" d="M1737.31,253.28h-12.94l2.35-84.62,10.59-4.67v-18.09c0-68.87,17.64-122.56,51.29-122.56,7.29,0,15.76.58,21.88,2.92l-3.53,94.54h-4.23c-10.12,0-14.59,10.51-14.59,30.93v12.26h18.59l-2.12,89.29h-16.23v200.18h-51.05v-200.18Z"/>
  <path class="cls-1" d="M1823.41,312.81c0-74.12,17.64-155.82,63.75-155.82s60.23,87.54,51.76,186.75h-65.87c.24,19.26,8.7,25.68,19.53,25.68,12.47,0,27.76-8.17,37.64-14.01l4.23,86.37c-15.53,14.01-33.64,17.51-46.58,17.51-40.46,0-64.46-48.44-64.46-146.48ZM1894.46,271.37v-5.25c0-6.42-.94-25.68-9.65-25.68-6.12,0-11.76,14.59-11.76,30.93h21.41Z"/>
</svg>