<svg width="132" height="131" viewBox="0 0 132 131" fill="none" xmlns="http://www.w3.org/2000/svg">
<path d="M65.7735 130.99C101.923 130.99 131.228 101.667 131.228 65.4949C131.228 29.3231 101.923 0 65.7735 0C29.6239 0 0.318909 29.3231 0.318909 65.4949C0.318909 101.667 29.6239 130.99 65.7735 130.99Z" fill="white"/>
<path d="M65.7736 81.4852C79.4417 81.4852 90.5219 70.3982 90.5219 56.7217C90.5219 43.0452 79.4417 31.9583 65.7736 31.9583C52.1056 31.9583 41.0254 43.0452 41.0254 56.7217C41.0254 70.3982 52.1056 81.4852 65.7736 81.4852Z" fill="#53FF3F"/>
<path d="M13.3066 107.566C18.7647 103.319 37.8714 89.5319 65.7735 89.9312C92.2055 90.3096 110.223 103.185 115.85 107.566C113.095 110.732 95.3252 130.47 65.7735 130.99C34.8176 131.534 15.9047 110.549 13.3066 107.566Z" fill="#53FF3F"/>
</svg>
