<?xml version="1.0" encoding="UTF-8"?>
<svg id="_圖層_1" data-name="圖層 1" xmlns="http://www.w3.org/2000/svg" xmlns:xlink="http://www.w3.org/1999/xlink" viewBox="0 0 1980 401.37">
  <defs>
    <style>
      .cls-1 {
        mask: url(#mask);
      }

      .cls-2 {
        filter: url(#luminosity-noclip);
      }

      .cls-3 {
        fill: #ffce00;
      }

      .cls-4 {
        fill: #fff;
      }
    </style>
    <filter id="luminosity-noclip" x="-51.45" y="0" width="2038.44" height="392.59" color-interpolation-filters="sRGB" filterUnits="userSpaceOnUse">
      <feFlood flood-color="#fff" result="bg"/>
      <feBlend in="SourceGraphic" in2="bg"/>
    </filter>
    <mask id="mask" x="-51.45" y="0" width="2038.44" height="392.59" maskUnits="userSpaceOnUse">
      <g class="cls-2">
        <g>
          <path class="cls-4" d="M259.85,265.15c.11,18.52.21,37.04.32,55.57,16.58,2.17,33.16,4.34,49.74,6.51v-54.72c-16.69-2.45-33.37-4.91-50.06-7.36Z"/>
          <path class="cls-4" d="M579.61,300.16c-.88,3.56-1.59,7.54-1.97,11.88-1.33,15.41,2.27,28.21,5.54,36.53,33.93-7.44,67.87-14.88,101.8-22.32-1.95-2.84-4.98-6.55-9.42-10.04-6-4.71-11.93-6.94-15.75-8.03-26.73-2.67-53.47-5.34-80.2-8.01Z"/>
          <path class="cls-4" d="M922.23,0c3.43,16.36,6.86,32.73,10.29,49.09,2.96-9.35,5.92-18.7,8.88-28.05-6.39-7.01-12.78-14.03-19.17-21.04Z"/>
          <path class="cls-4" d="M1050.8,31.79c-3.43,17.45-6.86,34.91-10.29,52.36-4.05-15.43-8.1-30.86-12.16-46.28,7.48-2.03,14.96-4.05,22.44-6.08Z"/>
          <path class="cls-4" d="M1280.39,214.74v38.9c16.62-5.65,33.25-11.29,49.87-16.94v-37.33c-16.62,5.12-33.25,10.25-49.87,15.37Z"/>
          <path class="cls-4" d="M1356.3,192.78v39.52c16.89-7.01,33.78-14.01,50.67-21.02l-.18-29.1c-16.83,3.53-33.66,7.07-50.49,10.6Z"/>
          <path class="cls-4" d="M1668.19,184.78v35.21c16.95,6.42,33.9,12.84,50.85,19.26v-40.97c-16.95-4.5-33.9-9-50.85-13.5Z"/>
          <path class="cls-4" d="M1838.86,262.91c-.31-.78-.53-1.15-.68-1.12-.72.15.69,10.56,4.22,31.25,3.47-2.99,6.93-5.98,10.4-8.97-.39-2.56-1.32-6.56-3.82-10.81-3.33-5.67-7.73-8.86-10.12-10.35Z"/>
        </g>
      </g>
    </mask>
  </defs>
  <g class="cls-1">
    <path class="cls-3" d="M1976.98,392.59c-2.32,0-4.65-.8-6.54-2.44-12.3-10.65-25.04-21.19-37.84-31.33-19.72-15.62-52.74-41.77-98.96-70.04-24.81-15.17-62.3-38.1-116.79-59.49-11.29-4.43-28.34-11.12-51.44-17.8-78.11-22.58-143-21.17-167.28-19.51-7.32.5-46.02,3.55-88.66,14.58-23.28,6.03-49.19,14.82-52.07,15.81-9.73,3.33-17.51,6.2-27.36,9.85-16.29,6.03-33.48,12.62-48.38,18.56l-.66.26c-70.42,27.94-131.14,31.62-169.67,29.8-42.12-1.99-67.44-10.68-68.5-11.04-31.8-11.09-63.2-30.04-89.46-53.62-19.4,11.47-38.85,21.84-56.12,31.06-99.72,53.2-184,70.7-225.37,76.4-40.96,5.64-78.39,6.44-96.38,6.82-57.33,1.21-107.27-2.71-160.14-6.85-12.79-1-24.15-2.02-35.74-3.2-23.08-2.35-46.48-5.29-69.55-8.75-.27-.04-26.9-4.04-53.23-8.97-47.27-8.84-161.81-40.56-301.59-89.3-5.21-1.82-7.97-7.52-6.15-12.74,1.82-5.21,7.52-7.97,12.74-6.15,138.8,48.4,252.12,79.82,298.68,88.53,25.97,4.86,52.26,8.81,52.52,8.85,22.76,3.41,45.84,6.32,68.61,8.63,11.43,1.16,22.64,2.17,35.28,3.16,52.36,4.11,101.82,7.99,158.15,6.8,17.61-.37,54.26-1.15,94.07-6.64,40.04-5.52,121.71-22.5,218.69-74.23,15.66-8.35,33.14-17.68,50.65-27.87-2.47-2.59-4.87-5.23-7.2-7.9-32.09-36.78-47.81-76.84-44.27-112.81.94-9.54,6-42.15,31.69-61.39,18.7-14,45.4-18.72,73.27-12.94,29.3,6.08,54.1,22.51,66.35,43.96,8.36,14.64,9.41,29.02,9.48,34.52.36,31.86-19.67,63.1-61.26,95.49-11.09,8.64-23.05,16.85-35.31,24.62,23.33,19.99,50.6,36.04,78.18,45.65.22.08,24.25,8.23,63.74,9.99,36.38,1.62,93.76-1.99,160.47-28.46l.63-.25c15.05-6,32.4-12.66,48.85-18.74,9.98-3.69,17.87-6.61,27.83-10.01,2.95-1.01,29.53-10.03,53.52-16.24,44.36-11.48,84.68-14.66,92.31-15.18,25.33-1.73,93.02-3.21,174.19,20.26,23.99,6.94,41.57,13.83,53.19,18.4,56.12,22.03,94.51,45.51,119.92,61.04,47.26,28.9,80.86,55.52,100.94,71.42,13.04,10.32,25.99,21.05,38.51,31.89,4.18,3.61,4.63,9.93,1.02,14.11-1.98,2.29-4.76,3.46-7.57,3.46ZM968.91,24.24c-14.86,0-28.22,3.9-38.21,11.38-19.15,14.35-23.04,39.87-23.78,47.34-2.99,30.42,11.01,65.12,39.44,97.7,3.12,3.57,6.37,7.07,9.73,10.48,13.33-8.28,26.32-17.06,38.17-26.28,36.32-28.29,53.84-54.29,53.55-79.48-.04-3.07-.64-13.96-6.85-24.83-9.31-16.3-29.63-29.44-53.04-34.3-6.5-1.35-12.88-2.01-19.01-2.01Z"/>
  </g>
</svg>