<svg width="76" height="56" viewBox="0 0 76 56" fill="none" xmlns="http://www.w3.org/2000/svg">
<path d="M67.8904 3.89307H8.10963C3.63891 3.89307 0 7.55763 0 12.061V44.3683C0 48.8717 3.63891 52.5362 8.10963 52.5362H67.8904C72.3611 52.5362 76 48.8717 76 44.3683V12.061C76 7.55763 72.3611 3.89307 67.8904 3.89307ZM8.10963 6.20073H67.8904C70.8716 6.20073 73.3075 8.47839 73.6409 11.393H2.3591C2.69252 8.47954 5.12953 6.20073 8.10963 6.20073ZM67.8904 50.2297H8.10963C4.90038 50.2297 2.2915 47.6013 2.2915 44.3694V19.2782H73.7085V44.3694C73.7085 47.6013 71.0996 50.2297 67.8904 50.2297Z" fill="#6C4023"/>
<path d="M29.0287 38.3003C28.5875 38.5218 27.7088 38.7433 26.5825 38.7433C23.9713 38.7433 22.0063 37.0818 22.0063 34.0242C22.0063 31.1038 23.9713 29.125 26.8426 29.125C27.9975 29.125 28.7273 29.3742 29.0424 29.5404L28.7537 30.5234C28.3 30.3019 27.6549 30.1358 26.885 30.1358C24.7149 30.1358 23.2713 31.533 23.2713 33.9826C23.2713 36.2661 24.5763 37.7337 26.8288 37.7337C27.5587 37.7337 28.2988 37.5814 28.78 37.346L29.0287 38.3003Z" fill="#6C4023"/>
<path d="M32.0831 35.6705L31.1207 38.6047H29.8833L33.0295 29.2783H34.4732L37.6355 38.6047H36.3579L35.3669 35.6705H32.0831ZM35.1194 34.729L34.2131 32.0441C34.0046 31.436 33.8682 30.8821 33.7319 30.3422H33.7032C33.5669 30.896 33.4145 31.4637 33.2381 32.0302L32.3295 34.7279H35.1194V34.729Z" fill="#6C4023"/>
<path d="M38.998 29.4019C39.6041 29.2772 40.468 29.208 41.2941 29.208C42.5716 29.208 43.3954 29.4434 43.9729 29.9695C44.4404 30.3849 44.7027 31.0218 44.7027 31.7407C44.7027 32.9718 43.9328 33.7887 42.9578 34.121V34.1626C43.6716 34.4118 44.0989 35.0764 44.3178 36.0445C44.6203 37.346 44.8391 38.2448 45.0316 38.6048H43.7965C43.6441 38.3417 43.439 37.5398 43.1766 36.3768C42.9016 35.0902 42.4067 34.6056 41.3216 34.5641H40.1965V38.6048H38.9992L38.998 29.4019ZM40.1954 33.6503H41.4167C42.6942 33.6503 43.5066 32.9441 43.5066 31.8791C43.5066 30.6745 42.6404 30.1484 41.3766 30.1357C40.7992 30.1357 40.3878 30.1911 40.1954 30.2465V33.6514V33.6503Z" fill="#6C4023"/>
<path d="M46.396 29.4019C47.1235 29.2911 47.9897 29.208 48.9384 29.208C50.657 29.208 51.8784 29.6095 52.6885 30.3699C53.5146 31.1314 53.9958 32.2103 53.9958 33.7183C53.9958 35.2402 53.5283 36.4864 52.6621 37.3448C51.7959 38.216 50.3683 38.6867 48.5672 38.6867C47.7148 38.6867 47.001 38.6452 46.396 38.576V29.4019ZM47.591 37.6494C47.8935 37.7048 48.3335 37.7187 48.8021 37.7187C51.3582 37.7187 52.7446 36.2798 52.7446 33.761C52.7584 31.5607 51.5209 30.1634 48.9946 30.1634C48.3747 30.1634 47.9072 30.2188 47.591 30.288V37.6494Z" fill="#6C4023"/>
</svg>
