<svg width="24" height="24" viewBox="0 0 24 24" fill="none" xmlns="http://www.w3.org/2000/svg">
<path d="M12 24C18.6274 24 24 18.6274 24 12C24 5.37258 18.6274 0 12 0C5.37259 0 0 5.37258 0 12C0 18.6274 5.37259 24 12 24Z" fill="#51FF3E"/>
<path d="M14.4178 6.01928C16.8776 6.01928 18.5896 6.47567 19.5538 7.38843C20.5179 8.28834 21 9.56106 21 11.2066C21 12.3379 20.8084 13.3021 20.4252 14.0992C20.042 14.8834 19.3684 15.5005 18.4042 15.9504C17.4401 16.3875 16.1112 16.6061 14.4178 16.6061H10.5612V20H6C6.09889 17.506 6.14833 15.1726 6.14833 13C6.14833 10.8274 6.09889 8.49403 6 6H10.5612V6.01928H14.4178ZM13.1199 12.8843C14.1459 12.8843 14.9122 12.8457 15.419 12.7686C15.9382 12.6786 16.2967 12.5243 16.4944 12.3058C16.7046 12.0872 16.8096 11.7658 16.8096 11.3416C16.8096 10.9174 16.7108 10.6024 16.513 10.3967C16.3276 10.1781 15.9753 10.0303 15.4561 9.95317C14.9493 9.87603 14.1706 9.83747 13.1199 9.83747H10.5612V12.8843H13.1199Z" fill="white"/>
</svg>
