<svg width="52" height="53" viewBox="0 0 52 53" fill="none" xmlns="http://www.w3.org/2000/svg">
<path d="M28.784 15.9C33.56 15.9 36.884 16.752 38.756 18.456C40.628 20.136 41.564 22.512 41.564 25.584C41.564 27.696 41.192 29.496 40.448 30.984C39.704 32.448 38.396 33.6 36.524 34.44C34.652 35.256 32.072 35.664 28.784 35.664H21.296V42H12.44C12.632 37.344 12.728 32.988 12.728 28.932C12.728 24.876 12.632 20.52 12.44 15.864H21.296V15.9H28.784ZM26.264 28.716C28.256 28.716 29.744 28.644 30.728 28.5C31.736 28.332 32.432 28.044 32.816 27.636C33.224 27.228 33.428 26.628 33.428 25.836C33.428 25.044 33.236 24.456 32.852 24.072C32.492 23.664 31.808 23.388 30.8 23.244C29.816 23.1 28.304 23.028 26.264 23.028H21.296V28.716H26.264Z" fill="#6C4023"/>
<path d="M25.9013 4.53969C38.2933 4.53969 48.375 14.6277 48.375 27.0272C48.375 39.4268 38.2933 49.5148 25.9013 49.5148C13.5094 49.5148 3.42763 39.4268 3.42763 27.0272C3.42763 14.6277 13.5094 4.53969 25.9013 4.53969ZM25.9013 1.76465C11.9577 1.76465 0.654297 13.075 0.654297 27.0272C0.654297 40.9795 11.9577 52.2898 25.9013 52.2898C39.845 52.2898 51.1484 40.9795 51.1484 27.0272C51.1484 13.075 39.845 1.76465 25.9013 1.76465Z" fill="#6C4023"/>
</svg>
