<svg width="56" height="56" viewBox="0 0 56 56" fill="none" xmlns="http://www.w3.org/2000/svg">
<path d="M0.614746 22.4495C0.614746 25.6578 2.81539 28.3312 5.78286 29.1019V51.7529H2.33733C1.3885 51.7529 0.614746 52.5236 0.614746 53.4765C0.614746 54.4294 1.3885 55.2002 2.33733 55.2002H54.0177C54.9731 55.2002 55.7403 54.4294 55.7403 53.4765C55.7403 52.5236 54.9731 51.7529 54.0177 51.7529H50.5722V29.1019C53.54 28.3308 55.7403 25.6578 55.7403 22.4495V20.7258H0.614746V22.4495ZM35.0682 29.3448C38.877 29.3448 41.9589 26.2575 41.9589 22.4498C41.9589 25.6581 44.1595 28.3315 47.127 29.1023V51.7532H21.2868V29.3448C25.0956 29.3448 28.1775 26.2575 28.1775 22.4498C28.1775 26.2575 31.2663 29.3448 35.0682 29.3448ZM19.5639 29.1023V51.7532H9.22769V29.1023C12.1955 28.3312 14.3958 25.6581 14.3958 22.4498C14.3958 25.6581 16.5964 28.3315 19.5639 29.1023ZM48.8496 5.21231H7.50544L0.614746 19.0022H55.7403L48.8496 5.21231ZM15.1699 9.0436L11.7244 15.9385C11.5694 16.2417 11.2668 16.4165 10.9506 16.4165C10.8227 16.4165 10.6917 16.3895 10.5669 16.3257C10.1429 16.1134 9.96782 15.5951 10.1831 15.1709L13.6286 8.27597C13.8439 7.85173 14.3587 7.68002 14.7827 7.88884C15.2101 8.10113 15.3782 8.61936 15.1699 9.0436ZM22.0606 9.0436L18.6151 15.9385C18.4601 16.2417 18.1575 16.4165 17.8413 16.4165C17.7134 16.4165 17.5824 16.3895 17.4576 16.3257C17.0336 16.1134 16.8585 15.5951 17.0738 15.1709L20.5193 8.27597C20.7346 7.85173 21.2529 7.68002 21.6734 7.88884C22.1008 8.10113 22.2689 8.61936 22.0606 9.0436ZM29.0386 15.5545C29.0386 16.0325 28.6549 16.4165 28.1772 16.4165C27.7029 16.4165 27.3157 16.0325 27.3157 15.5545V8.6596C27.3157 8.1816 27.7026 7.79761 28.1772 7.79761C28.6549 7.79761 29.0386 8.1816 29.0386 8.6596V15.5545ZM38.9308 16.3087C38.7963 16.3829 38.6548 16.4165 38.5137 16.4165C38.2107 16.4165 37.9147 16.2549 37.7601 15.9687L33.9918 9.07379C33.763 8.65649 33.9176 8.13097 34.335 7.9055C34.7455 7.67656 35.2773 7.82467 35.5061 8.24544L39.2743 15.1404C39.4962 15.558 39.3482 16.0832 38.9311 16.3087H38.9308ZM45.7878 16.3257C45.6669 16.3898 45.5389 16.4165 45.4041 16.4165C45.0879 16.4165 44.7849 16.2414 44.6369 15.9385L41.1914 9.0436C40.9761 8.61936 41.1512 8.10078 41.5752 7.88884C41.9922 7.67655 42.5174 7.84861 42.7327 8.27597L46.1782 15.1709C46.3869 15.5951 46.2184 16.1137 45.7878 16.3257ZM15.2572 41.6736V37.7008C14.7525 37.3976 14.3958 36.8724 14.3958 36.2397C14.3958 35.2868 15.1695 34.5161 16.1184 34.5161C17.0738 34.5161 17.841 35.2868 17.841 36.2397C17.841 36.8728 17.4877 37.3979 16.9795 37.7008V41.6736C17.4877 41.9767 17.841 42.5019 17.841 43.1346C17.841 44.0875 17.0738 44.8583 16.1184 44.8583C15.1695 44.8583 14.3958 44.0875 14.3958 43.1346C14.3958 42.5016 14.7525 41.9764 15.2572 41.6736ZM7.50544 1.76468C7.50544 0.811802 8.2792 0.0410156 9.22803 0.0410156H47.127C48.0824 0.0410156 48.8496 0.811802 48.8496 1.76468C48.8496 2.71756 48.0824 3.48833 47.127 3.48833H9.22803C8.2792 3.48833 7.50544 2.71756 7.50544 1.76468ZM30.8087 38.5725L29.5905 37.3535L34.4626 32.4785L35.6808 33.6974L30.8087 38.5725ZM30.8087 43.4475L29.5905 42.2286L39.3343 32.4788L40.5525 33.6978L30.8087 43.4475ZM39.3343 37.3539L40.5525 38.5728L35.6804 43.4479L34.4622 42.2289L39.3343 37.3539Z" fill="#6C4023"/>
</svg>
